<svg xmlns="http://www.w3.org/2000/svg" width="1200" height="570" viewBox="0 0 1200 570" role="img" aria-labelledby="title desc">
<title id="title">fox-ai · 统一模型流</title>
<desc id="desc">同一套消息与事件类型，承接不同供应商的响应；provider 是供应商标识；api 是传输适配协议；Faux 用于离线学习与回归</desc>
<defs><marker id="arrow" viewBox="0 0 10 10" refX="8" refY="5" markerWidth="7" markerHeight="7" orient="auto-start-reverse"><path d="M 0 0 L 10 5 L 0 10 z" fill="#8c98a8"/></marker></defs>
<rect width="1200" height="570" rx="20" fill="#f7f9fc"/>
<g font-family="-apple-system,BlinkMacSystemFont,Segoe UI,PingFang SC,Microsoft YaHei,sans-serif">
<text x="42" y="58" font-size="28" font-weight="700" fill="#202b3a">fox-ai · 统一模型流</text>
<text x="42" y="93" font-size="16" fill="#596779">同一套消息与事件类型，承接不同供应商的响应</text>
<rect x="42" y="136" width="324" height="138" rx="14" fill="#fff" stroke="#d8e0e9"/>
<circle cx="70" cy="166" r="14" fill="#fff0e5"/>
<text x="70" y="171" font-size="14" font-weight="600" text-anchor="middle" fill="#a34f20">1</text>
<text x="94" y="172" font-size="20" font-weight="600" fill="#202b3a">Model + Context</text>
<text x="64" y="213" font-size="16" fill="#465366">模型元数据 · 消息 · 工具</text>
<text x="64" y="244" font-size="15" fill="#657489">StreamOptions 控制本次调用</text>
<rect x="438" y="136" width="324" height="138" rx="14" fill="#fff" stroke="#d8e0e9"/>
<circle cx="466" cy="166" r="14" fill="#fff0e5"/>
<text x="466" y="171" font-size="14" font-weight="600" text-anchor="middle" fill="#a34f20">2</text>
<text x="490" y="172" font-size="20" font-weight="600" fill="#202b3a">stream / stream_simple</text>
<text x="460" y="213" font-size="16" fill="#465366">按 model.api 查注册表</text>
<text x="460" y="244" font-size="15" fill="#657489">同步返回 EventStream</text>
<rect x="834" y="136" width="324" height="138" rx="14" fill="#fff" stroke="#d8e0e9"/>
<circle cx="862" cy="166" r="14" fill="#fff0e5"/>
<text x="862" y="171" font-size="14" font-weight="600" text-anchor="middle" fill="#a34f20">3</text>
<text x="886" y="172" font-size="20" font-weight="600" fill="#202b3a">Provider adapter</text>
<text x="856" y="213" font-size="16" fill="#465366">OpenAI · Anthropic · Faux</text>
<text x="856" y="244" font-size="15" fill="#657489">映射请求并解析响应</text>
<rect x="834" y="322" width="324" height="138" rx="14" fill="#fff" stroke="#d8e0e9"/>
<circle cx="862" cy="352" r="14" fill="#fff0e5"/>
<text x="862" y="357" font-size="14" font-weight="600" text-anchor="middle" fill="#a34f20">4</text>
<text x="886" y="358" font-size="20" font-weight="600" fill="#202b3a">统一事件</text>
<text x="856" y="399" font-size="16" fill="#465366">text / thinking / toolcall</text>
<text x="856" y="430" font-size="15" fill="#657489">增量内容与终止状态</text>
<rect x="438" y="322" width="324" height="138" rx="14" fill="#fff" stroke="#d8e0e9"/>
<circle cx="466" cy="352" r="14" fill="#fff0e5"/>
<text x="466" y="357" font-size="14" font-weight="600" text-anchor="middle" fill="#a34f20">5</text>
<text x="490" y="358" font-size="20" font-weight="600" fill="#202b3a">EventStream</text>
<text x="460" y="399" font-size="16" fill="#465366">async for 消费事件</text>
<text x="460" y="430" font-size="15" fill="#657489">result() 等待最终消息</text>
<rect x="42" y="322" width="324" height="138" rx="14" fill="#fff" stroke="#d8e0e9"/>
<circle cx="70" cy="352" r="14" fill="#fff0e5"/>
<text x="70" y="357" font-size="14" font-weight="600" text-anchor="middle" fill="#a34f20">6</text>
<text x="94" y="358" font-size="20" font-weight="600" fill="#202b3a">AssistantMessage</text>
<text x="64" y="399" font-size="16" fill="#465366">content · usage · stopReason</text>
<text x="64" y="430" font-size="15" fill="#657489">交给 Agent 或直接显示</text>
<path d="M 370 205 H 429" fill="none" stroke="#8c98a8" stroke-width="2" marker-end="url(#arrow)"/>
<path d="M 766 205 H 825" fill="none" stroke="#8c98a8" stroke-width="2" marker-end="url(#arrow)"/>
<path d="M 996 278 V 313" fill="none" stroke="#8c98a8" stroke-width="2" marker-end="url(#arrow)"/>
<path d="M 830 391 H 771" fill="none" stroke="#8c98a8" stroke-width="2" marker-end="url(#arrow)"/>
<path d="M 434 391 H 375" fill="none" stroke="#8c98a8" stroke-width="2" marker-end="url(#arrow)"/>
<rect x="42" y="495" width="1116" height="40" rx="10" fill="#edf2f8"/>
<text x="600" y="521" text-anchor="middle" font-size="15" fill="#465366">provider 是供应商标识；api 是传输适配协议；Faux 用于离线学习与回归</text>
</g></svg>
