<svg xmlns="http://www.w3.org/2000/svg" width="1200" height="380" viewBox="0 0 1200 380" role="img" aria-labelledby="title desc">
<title id="title">FoxCode architecture</title><desc id="desc">Desktop connects to fox_serve over IPC and NDJSON. The runtime depends on agent core and the model layer.</desc>
<defs><linearGradient id="bg" x2="1" y2="1"><stop stop-color="#1b1b21"/><stop offset="1" stop-color="#111115"/></linearGradient><marker id="arrow" markerWidth="8" markerHeight="8" refX="7" refY="4" orient="auto"><path d="M0 0L8 4L0 8" fill="none" stroke="#a6a6b5" stroke-width="1.5"/></marker></defs>
<rect width="1200" height="380" rx="22" fill="url(#bg)"/>
<g font-family="-apple-system,BlinkMacSystemFont,Segoe UI,Arial,sans-serif">
<text x="44" y="56" fill="#efb485" font-size="15" letter-spacing="3">FOXCODE / ARCHITECTURE</text>
<text x="44" y="93" fill="#eeeeF3" font-size="24" font-weight="600">One workbench. A layered runtime.</text>
<g fill="#202027" stroke="#3a3a44"><rect x="44" y="150" width="210" height="130" rx="12"/><rect x="300" y="150" width="194" height="130" rx="12"/><rect x="540" y="150" width="244" height="130" rx="12"/><rect x="830" y="150" width="158" height="130" rx="12"/><rect x="1034" y="150" width="122" height="130" rx="12"/></g>
<rect x="540" y="150" width="244" height="130" rx="12" fill="none" stroke="#d6976d"/>
<g fill="#f2f2f6" font-size="19" font-weight="600"><text x="66" y="189">Desktop</text><text x="322" y="189">fox_serve</text><text x="562" y="189">Coding Agent</text><text x="850" y="189">Agent Core</text><text x="1054" y="189">fox_ai</text></g>
<g fill="#aaaabb" font-size="14"><text x="66" y="222">React + Electron</text><text x="66" y="248">Chat · Files · Terminal</text><text x="322" y="222">NDJSON host</text><text x="322" y="248">Config · Memory API</text><text x="562" y="222">Tools · Permissions · Sessions</text><text x="562" y="248">Memory · MCP · Subagent</text><text x="850" y="222">Agent loop</text><text x="850" y="248">Hooks · Harness</text><text x="1054" y="222">Providers</text><text x="1054" y="248">Streams</text></g>
<g stroke="#a6a6b5" stroke-width="1.5" marker-end="url(#arrow)"><path d="M261 215H289"/><path d="M501 215H529"/><path d="M791 215H819"/><path d="M995 215H1023"/></g>
<text x="44" y="333" fill="#838392" font-size="14">Local workspace &amp; Markdown memory · Provider credentials stay in the user configuration directory</text>
</g></svg>
